<svg width="32" height="32" viewBox="0 0 64 64" xmlns="http://www.w3.org/2000/svg"><path d="M64 12.237c-1.627 2.531-3.797 4.791-6.508 6.78v1.627c0 9.492-3.413 18.102-10.238 25.83-6.825 7.73-15.887 11.594-27.186 11.594-7.232 0-13.921-1.989-20.068-5.966 1.446.18 2.486.27 3.119.27 6.056 0 11.48-1.897 16.27-5.694-2.801-.09-5.332-.972-7.592-2.644-2.26-1.672-3.797-3.82-4.61-6.44 1.084.18 1.898.27 2.44.27.904 0 2.08-.18 3.526-.542-2.984-.633-5.492-2.147-7.526-4.542-2.034-2.396-3.05-5.175-3.05-8.34v-.135c1.988 1.085 3.977 1.627 5.965 1.627-3.887-2.53-5.83-6.192-5.83-10.983 0-2.26.587-4.43 1.763-6.508 6.96 8.587 15.954 13.152 26.983 13.695-.181-.633-.272-1.628-.272-2.983 0-3.707 1.266-6.825 3.797-9.356C37.514 7.266 40.633 6 44.34 6c3.706 0 6.87 1.401 9.492 4.203 2.711-.452 5.514-1.536 8.406-3.254-.904 3.164-2.847 5.605-5.83 7.322C59.209 14 61.74 13.322 64 12.237z" fill="#18191B" fill-rule="evenodd"/></svg>