<svg width="32" height="32" viewBox="0 0 64 64" xmlns="http://www.w3.org/2000/svg"><path d="M32 0C14.329 0 0 14.7 0 32.814c0 14.5 9.171 26.786 21.886 31.129.2.043.371.057.543.057 1.185 0 1.642-.871 1.642-1.629 0-.785-.028-2.842-.042-5.585-1.2.271-2.272.385-3.229.385-6.157 0-7.557-4.785-7.557-4.785-1.457-3.786-3.557-4.8-3.557-4.8-2.786-1.957-.015-2.015.2-2.015H9.9c3.214.286 4.9 3.4 4.9 3.4 1.6 2.8 3.743 3.586 5.657 3.586 1.5 0 2.857-.486 3.657-.857.286-2.114 1.115-3.557 2.029-4.386-7.1-.828-14.572-3.643-14.572-16.214 0-3.586 1.243-6.514 3.286-8.8-.328-.829-1.428-4.171.314-8.686 0 0 .229-.071.715-.071 1.157 0 3.771.443 8.085 3.443 2.558-.729 5.286-1.086 8.015-1.1 2.714.014 5.457.371 8.014 1.1 4.314-3 6.929-3.443 8.086-3.443.485 0 .714.071.714.071 1.743 4.515.643 7.857.314 8.686 2.043 2.3 3.286 5.229 3.286 8.8 0 12.6-7.486 15.371-14.614 16.186 1.143 1.014 2.171 3.014 2.171 6.071 0 4.386-.043 7.929-.043 9 0 .772.443 1.643 1.629 1.643.171 0 .371-.014.571-.057C54.843 59.6 64 47.3 64 32.814 64 14.7 49.671 0 32 0z" fill="#18191B" fill-rule="evenodd"/></svg>