<svg width="32" height="32" viewBox="0 0 64 64" xmlns="http://www.w3.org/2000/svg"><path d="M58.882 0H5.468C2.551 0 0 2.1 0 4.985v53.53C0 61.415 2.55 64 5.468 64h53.397C61.8 64 64 61.4 64 58.515V4.985C64.016 2.1 61.8 0 58.882 0zM19.838 53.347H10.67V24.84h9.17v28.507zm-4.267-32.842h-.067c-2.934 0-4.835-2.184-4.835-4.918 0-2.784 1.95-4.918 4.952-4.918 3 0 4.834 2.118 4.901 4.918 0 2.734-1.9 4.918-4.951 4.918zm37.776 32.842h-9.169V37.76c0-3.735-1.334-6.285-4.651-6.285-2.534 0-4.035 1.717-4.701 3.384-.25.6-.317 1.417-.317 2.25v16.238h-9.17V24.84h9.17v3.967c1.334-1.9 3.417-4.634 8.269-4.634 6.018 0 10.57 3.968 10.57 12.52v16.654z" fill="#18191B" fill-rule="evenodd"/></svg>