<svg xmlns="http://www.w3.org/2000/svg" viewBox="0 0 56 56"><path d="M53.281.497A1.001 1.001 0 0052.417 0H40.739a1 1 0 00-.87.506l-19.948 35.14a1 1 0 00.015 1.012l11.431 18.86a.999.999 0 00.854.482H44.14a1 1 0 00.866-1.5L34.015 35.441 53.287 1.494a.998.998 0 00-.006-.997zM31.993 34.951c-.175.309-.174.687.003.994L42.409 54h-9.625L21.95 36.123 41.321 2h9.378L31.993 34.951zm-8.785-9.19L17.58 12.606a1 1 0 00-.92-.606H6.066a1 1 0 00-.919 1.393l5.188 12.126-7.63 14.002A1 1 0 003.583 41h10.595a1 1 0 00.863-.494l8.111-13.846a1 1 0 00.056-.899zM13.604 39H5.266l7.057-12.949c.146-.269.162-.59.042-.872L7.581 14H16l5.17 12.084L13.604 39z"/></svg>