<?xml version="1.0" encoding="UTF-8"?>
<svg width="32px" height="32px" viewBox="0 0 64 64" version="1.1" xmlns="http://www.w3.org/2000/svg" xmlns:xlink="http://www.w3.org/1999/xlink">
    <!-- Generator: Sketch 60 (88103) - https://sketch.com -->
    <title>icon-github</title>
    <desc>Created with Sketch.</desc>
    <g id="icon-github" stroke="none" stroke-width="1" fill="none" fill-rule="evenodd">
        <path d="M32,0 C14.3285714,0 0,14.7 0,32.8142857 C0,47.3142857 9.17142857,59.6 21.8857143,63.9428571 C22.0857143,63.9857143 22.2571429,64 22.4285714,64 C23.6142857,64 24.0714286,63.1285714 24.0714286,62.3714286 C24.0714286,61.5857143 24.0428571,59.5285714 24.0285714,56.7857143 C22.8285714,57.0571429 21.7571429,57.1714286 20.8,57.1714286 C14.6428571,57.1714286 13.2428571,52.3857143 13.2428571,52.3857143 C11.7857143,48.6 9.68571429,47.5857143 9.68571429,47.5857143 C6.9,45.6285714 9.67142857,45.5714286 9.88571429,45.5714286 L9.9,45.5714286 C13.1142857,45.8571429 14.8,48.9714286 14.8,48.9714286 C16.4,51.7714286 18.5428571,52.5571429 20.4571429,52.5571429 C21.9571429,52.5571429 23.3142857,52.0714286 24.1142857,51.7 C24.4,49.5857143 25.2285714,48.1428571 26.1428571,47.3142857 C19.0428571,46.4857143 11.5714286,43.6714286 11.5714286,31.1 C11.5714286,27.5142857 12.8142857,24.5857143 14.8571429,22.3 C14.5285714,21.4714286 13.4285714,18.1285714 15.1714286,13.6142857 C15.1714286,13.6142857 15.4,13.5428571 15.8857143,13.5428571 C17.0428571,13.5428571 19.6571429,13.9857143 23.9714286,16.9857143 C26.5285714,16.2571429 29.2571429,15.9 31.9857143,15.8857143 C34.7,15.9 37.4428571,16.2571429 40,16.9857143 C44.3142857,13.9857143 46.9285714,13.5428571 48.0857143,13.5428571 C48.5714286,13.5428571 48.8,13.6142857 48.8,13.6142857 C50.5428571,18.1285714 49.4428571,21.4714286 49.1142857,22.3 C51.1571429,24.6 52.4,27.5285714 52.4,31.1 C52.4,43.7 44.9142857,46.4714286 37.7857143,47.2857143 C38.9285714,48.3 39.9571429,50.3 39.9571429,53.3571429 C39.9571429,57.7428571 39.9142857,61.2857143 39.9142857,62.3571429 C39.9142857,63.1285714 40.3571429,64 41.5428571,64 C41.7142857,64 41.9142857,63.9857143 42.1142857,63.9428571 C54.8428571,59.6 64,47.3 64,32.8142857 C64,14.7 49.6714286,0 32,0 Z" id="Path" fill="#18191B"></path>
    </g>
</svg>