<?xml version="1.0" encoding="UTF-8"?>
<svg width="32px" height="32px" viewBox="0 0 64 64" version="1.1" xmlns="http://www.w3.org/2000/svg" xmlns:xlink="http://www.w3.org/1999/xlink">
    <!-- Generator: Sketch 60 (88103) - https://sketch.com -->
    <title>icon-linkedin</title>
    <desc>Created with Sketch.</desc>
    <g id="icon-linkedin" stroke="none" stroke-width="1" fill="none" fill-rule="evenodd">
        <path d="M58.8818296,0 L5.46807478,0 C2.55065683,0 0,2.10054092 0,4.98461695 L0,58.5150685 C0,61.4158155 2.55065683,63.9998143 5.46807478,63.9998143 L58.8651587,63.9998143 C61.7992476,63.9998143 63.9999077,61.3991446 63.9999077,58.5150685 L63.9999077,4.98461695 C64.0164852,2.10054092 61.7992476,0 58.8818296,0 Z M19.838442,53.347071 L10.6694142,53.347071 L10.6694142,24.8397299 L19.838442,24.8397299 L19.838442,53.347071 Z M15.5706764,20.5052804 L15.5039925,20.5052804 C12.5699036,20.5052804 10.6694142,18.3213847 10.6694142,15.5873473 C10.6694142,12.803297 12.6199165,10.6694142 15.6206892,10.6694142 C18.621462,10.6694142 20.4552675,12.7866261 20.5219514,15.5873473 C20.5219514,18.3213847 18.621462,20.5052804 15.5706764,20.5052804 Z M53.347071,53.347071 L44.1780432,53.347071 L44.1780432,37.7597237 C44.1780432,34.0254287 42.8443664,31.4747719 39.5268454,31.4747719 C36.9928596,31.4747719 35.4924732,33.1918808 34.8256348,34.8589767 C34.5755704,35.4591313 34.5088866,36.2760083 34.5088866,37.1095563 L34.5088866,53.347071 L25.3398587,53.347071 L25.3398587,24.8397299 L34.5088866,24.8397299 L34.5088866,28.8074184 C35.8425633,26.9069289 37.9264333,24.1728916 42.7776826,24.1728916 C48.795899,24.1728916 53.347071,28.14058 53.347071,36.6927823 L53.347071,53.347071 L53.347071,53.347071 Z" id="Shape" fill="#18191B"></path>
    </g>
</svg>