<?xml version="1.0" encoding="UTF-8"?>
<svg width="32px" height="32px" viewBox="0 0 64 64" version="1.1" xmlns="http://www.w3.org/2000/svg" xmlns:xlink="http://www.w3.org/1999/xlink">
    <!-- Generator: Sketch 60 (88103) - https://sketch.com -->
    <title>icon-twitter</title>
    <desc>Created with Sketch.</desc>
    <g id="icon-twitter" stroke="none" stroke-width="1" fill="none" fill-rule="evenodd">
        <path d="M64,12.2372862 C62.3728875,14.768373 60.2034212,17.0282444 57.4915498,19.0169518 L57.4915498,20.6440643 C57.4915498,30.1356527 54.0791415,38.7457318 47.2542476,46.4745846 C40.4293537,54.2034373 31.3672926,58.0678071 20.0678019,58.0678071 C12.8361235,58.0678071 6.14692475,56.0791259 0,52.1017055 C1.44633517,52.2824952 2.48587293,52.37289 3.11864566,52.37289 C9.17517298,52.37289 14.5988489,50.4746032 19.3898354,46.677973 C16.5875588,46.5875781 14.0565106,45.7062309 11.7966135,44.0339055 C9.53671383,42.3615801 8,40.21471 7.18644244,37.5932257 C8.27119357,37.774018 9.08474469,37.8644129 9.62712154,37.8644129 C10.5310804,37.8644129 11.7062109,37.6836231 13.1525441,37.3220412 C10.1694778,36.6892695 7.66102829,35.1751582 5.6271209,32.7796662 C3.59321094,30.384164 2.57627138,27.6045402 2.57627138,24.4406945 L2.57627138,24.3050868 C4.56498135,25.3898457 6.55366303,25.9321994 8.54237556,25.9321994 C4.65534792,23.4011125 2.71186624,19.7401415 2.71186624,14.9491576 C2.71186624,12.6892605 3.29943023,10.5197942 4.47457621,8.44068167 C11.4350649,17.0282958 20.4293274,21.5932154 31.4576463,22.1355949 C31.276836,21.502836 31.1864566,20.5084823 31.1864566,19.1525338 C31.1864566,15.4463087 32.4519743,12.3276913 34.9830611,9.7966045 C37.5141479,7.26551769 40.6327653,6 44.3389904,6 C48.0452154,6 51.2090354,7.4011254 53.8305273,10.2034019 C56.5423987,9.75140193 59.3446238,8.66666881 62.2373055,6.94915113 C61.3333312,10.1130225 59.3898521,12.5536527 56.406791,14.2711961 C59.2090675,14 61.7401029,13.322045 64,12.2372862 Z" id="Fill-1" fill="#18191B"></path>
    </g>
</svg>